<svg xmlns="http://www.w3.org/2000/svg" width="488" height="130" viewBox="0 0 488 130">
  <path fill="#373E4D" d="M271,481 L292,481 L292,462 L271,462 L271,481 Z M270,562 L292,562 L292,489 L270,489 L270,562 Z M349.584178,487 C338.935091,487 331.409736,492.255682 326.58215,499.073864 L326.58215,488.704545 L305,488.704545 L305,562 L327.150101,562 L327.150101,521.090909 C327.150101,510.295455 334.249493,505.892045 341.064909,505.892045 C349.300203,505.892045 352.849899,510.295455 352.849899,518.392045 L352.849899,562 L375,562 L375,513.988636 C375,495.806818 364.066937,487 349.584178,487 Z M429,505.68945 L429,489.597325 L414.98494,489.597325 L414.98494,468 L392.900602,468 L392.900602,489.597325 L382,489.597325 L382,505.68945 L392.900602,505.68945 L392.900602,542.10847 C392.900602,557.071322 400.545181,563 418.807229,563 C422.063253,563 425.60241,562.858841 429,562.435364 L429,546.060921 L423.337349,546.060921 C417.674699,546.060921 414.98494,545.072808 414.98494,539.708767 L414.98494,505.68945 L429,505.68945 Z M511,527.111111 C511,502.622222 496.197368,487 473.5,487 C450.802632,487 436,502.059259 436,525 C436,548.081481 451.225564,563 473.781955,563 C491.263158,563 505.360902,553.992593 509.308271,538.651852 L488.443609,538.651852 C485.906015,543.859259 481.112782,546.814815 473.781955,546.814815 C465.182331,546.814815 458.697368,541.888889 457.146617,531.474074 L511,531.474074 L511,527.111111 Z M473.355263,503 C482.473684,503 488.407895,508.588235 490,518 L457,518 C458.736842,507.411765 465.105263,503 473.355263,503 Z M521,562 L543,562 L543,461 L521,461 L521,562 Z M556,481 L577,481 L577,462 L556,462 L556,481 Z M556,562 L578,562 L578,489 L556,489 L556,562 Z M641.571429,488.695652 L641.571429,498.304348 C637.201128,491.380435 630.152256,487 619.719925,487 C600.406015,487 588,501.836957 588,523.456522 C588,544.934783 600.828947,560.054348 620.142857,560.054348 C630.011278,560.054348 636.637218,556.097826 641.007519,549.73913 L641.007519,560.195652 C641.007519,569.097826 636.073308,574.467391 626.204887,574.467391 C617.464286,574.467391 612.81203,571.076087 612.24812,564.293478 L590.537594,564.293478 C591.383459,579.978261 603.084586,591 625.781955,591 C649.74812,591 663,578.98913 663,559.347826 L663,488.695652 L641.571429,488.695652 Z M626.429864,542 C616.751131,542 611,535.625468 611,523.707865 C611,511.928839 616.751131,505 626.429864,505 C636.248869,505 642,511.374532 642,523.430712 C642,535.486891 636.248869,542 626.429864,542 Z M677,481 L698,481 L698,462 L677,462 L677,481 Z M676,562 L698,562 L698,489 L676,489 L676,562 Z M753.201201,488 C754.894895,488 756.447447,488.141221 758,488.282443 L758,508.335878 L752.354354,508.335878 C740.075075,508.335878 733.018018,514.408397 733.018018,528.10687 L733.018018,562 L711,562 L711,489.129771 L732.453453,489.129771 L732.453453,502.687023 C735.558559,493.648855 742.333333,488 753.201201,488 Z" transform="translate(-270 -461)"/>
</svg>
