<svg xmlns="http://www.w3.org/2000/svg" xmlns:xlink="http://www.w3.org/1999/xlink" width="750" height="750" viewBox="0 0 750 750">
  <defs>
    <rect id="hero-bg-b" width="269" height="256" rx="8"/>
    <filter id="hero-bg-a" width="129.7%" height="131.2%" x="-14.9%" y="-12.5%" filterUnits="objectBoundingBox">
      <feOffset dy="8" in="SourceAlpha" result="shadowOffsetOuter1"/>
      <feGaussianBlur in="shadowOffsetOuter1" result="shadowBlurOuter1" stdDeviation="12"/>
      <feColorMatrix in="shadowBlurOuter1" values="0 0 0 0 0   0 0 0 0 0   0 0 0 0 0  0 0 0 0.2 0"/>
    </filter>
    <rect id="hero-bg-d" width="335" height="344" rx="8"/>
    <filter id="hero-bg-c" width="123.9%" height="123.3%" x="-11.9%" y="-9.3%" filterUnits="objectBoundingBox">
      <feOffset dy="8" in="SourceAlpha" result="shadowOffsetOuter1"/>
      <feGaussianBlur in="shadowOffsetOuter1" result="shadowBlurOuter1" stdDeviation="12"/>
      <feColorMatrix in="shadowBlurOuter1" values="0 0 0 0 0   0 0 0 0 0   0 0 0 0 0  0 0 0 0.2 0"/>
    </filter>
  </defs>
  <g fill="none" fill-rule="evenodd">
    <rect width="750" height="750" fill="#E8F4F4"/>
    <g transform="translate(125 67)">
      <g opacity=".8" transform="translate(186)">
        <use fill="#000" filter="url(#hero-bg-a)" xlink:href="#hero-bg-b"/>
        <use fill="#FFF" xlink:href="#hero-bg-b"/>
        <g transform="translate(24 24)">
          <circle cx="20" cy="20" r="20" fill="#F3B133"/>
          <rect width="54" height="12" x="48" y="4" fill="#B3E1E2" rx="4"/>
          <rect width="82" height="12" x="48" y="24" fill="#B3E1E2" rx="4"/>
          <g transform="translate(0 56)">
            <circle cx="20" cy="20" r="20" fill="#AF4CE3"/>
            <rect width="54" height="12" x="48" y="4" fill="#B3E1E2" rx="4"/>
            <rect width="157" height="12" x="48" y="24" fill="#B3E1E2" rx="4"/>
          </g>
          <g transform="translate(0 112)">
            <circle cx="20" cy="20" r="20" fill="#E3764C"/>
            <rect width="54" height="12" x="48" y="4" fill="#B3E1E2" rx="4"/>
            <rect width="118" height="12" x="48" y="24" fill="#B3E1E2" rx="4"/>
          </g>
          <g transform="translate(0 168)">
            <circle cx="20" cy="20" r="20" fill="#7930E3"/>
            <rect width="54" height="12" x="48" y="4" fill="#B3E1E2" rx="4"/>
            <rect width="118" height="12" x="48" y="24" fill="#B3E1E2" rx="4"/>
          </g>
        </g>
      </g>
      <g transform="translate(0 97)">
        <use fill="#000" filter="url(#hero-bg-c)" xlink:href="#hero-bg-d"/>
        <use fill="#FFF" xlink:href="#hero-bg-d"/>
        <rect width="287" height="32" x="24" y="288" fill="#FFF" stroke="#D0D0D0" rx="8"/>
        <g fill="#A2B8BF" fill-rule="nonzero" transform="translate(20 19)">
          <g transform="translate(257)">
            <path d="M7.5,0 C3.35769231,0 0,2.758 0,6.16 C0,8.04608 1.03461237,9.73195104 2.6603816,10.862031 C2.7018926,11.7221821 2.56458369,12.9098939 1.34202225,13.4575 C1.3412694,13.4578614 1.34051818,13.4582259 1.33976862,13.4585937 C1.22794421,13.4998738 1.15397708,13.6038713 1.15384615,13.72 C1.15384615,13.8746397 1.28299478,14 1.44230769,14 C1.44919454,14 1.45571342,13.998941 1.46259012,13.9989063 C1.46409252,13.9989177 1.46559498,13.9989177 1.46709738,13.9989063 C2.87134321,13.9901692 4.06342696,13.253539 4.88581731,12.4753126 C5.14658654,12.2283526 5.51012019,12.1068237 5.86838942,12.1723437 C6.39338942,12.2692237 6.93923077,12.32 7.5,12.32 C11.6423077,12.32 15,9.562 15,6.16 C15,2.758 11.6423077,0 7.5,0 Z"/>
            <path d="M3.54516603,0 C1.58704103,0 0,1.59813922 0,3.56995745 C0,7.00217509 3.95361146,10.2817085 5.80069967,11.7421876 C5.80245856,11.7436135 5.80422187,11.7450339 5.80598958,11.7464487 C5.81864563,11.7564545 5.83585221,11.7707067 5.84830729,11.7805396 L5.84936517,11.7794744 C6.03676776,11.9220666 6.26511579,11.9994627 6.5,12 C6.73524636,11.9996938 6.96400109,11.9222857 7.15169271,11.7794744 L7.15169271,11.7805396 C7.15533813,11.7776618 7.16072554,11.7738442 7.16438775,11.7709516 C7.167173,11.7687518 7.17111417,11.7657027 7.17390971,11.7634942 C7.17745695,11.7603215 7.18098346,11.7571255 7.184489,11.7539062 C9.02585071,10.2986749 13,7.01036509 13,3.56995745 C13,1.59813922 11.4129589,0 9.45483392,0 C7.58337558,0 6.5,1.63636364 6.5,1.63636364 C6.5,1.63636364 5.41662442,0 3.54516603,0 Z" transform="translate(25 1)"/>
          </g>
          <path d="M1.11171421,0.000484776254 C0.661228174,0.00104286679 0.255954763,0.274506618 0.0866441009,0.692164784 C-0.0826665616,1.10982295 0.0177169982,1.58846621 0.340547227,1.90281143 L3.43386784,4.9976091 L0.340547227,8.09240705 C0.0512170895,8.37032969 -0.0653313462,8.78302792 0.0358504733,9.17133881 C0.137032293,9.55964971 0.440133669,9.86289571 0.828259269,9.9641257 C1.21638487,10.0653557 1.62888608,9.94875147 1.90667598,9.65928308 L5,6.56448568 L8.09331749,9.65928308 C8.37110651,9.94875549 8.78360972,10.0653628 9.17173782,9.96413327 C9.55986591,9.86290375 9.86296918,9.55965575 9.96415038,9.17134232 C10.0653316,8.78302889 9.94877995,8.37032872 9.65944569,8.09240705 L6.56612535,4.9976091 L9.65944569,1.90281143 C9.98701176,1.58425163 10.0855034,1.09717337 9.90746195,0.6762775 C9.7294205,0.255381627 9.31137012,-0.0129875838 8.85475025,0.000484776254 C8.56701326,0.00906246204 8.29391666,0.129375482 8.09331749,0.335934846 L5,3.43073252 L1.90667598,0.335934846 C1.69789684,0.121218188 1.4111268,0.000209814057 1.11171421,0.000484776254 Z" transform="translate(0 1)"/>
        </g>
        <g transform="translate(24 56)">
          <circle cx="20" cy="20" r="20" fill="#F3B133"/>
          <rect width="54" height="12" x="48" y="4" fill="#B3E1E2" rx="4"/>
          <rect width="82" height="12" x="48" y="24" fill="#B3E1E2" rx="4"/>
          <g transform="translate(0 56)">
            <circle cx="20" cy="20" r="20" fill="#AC3DE8"/>
            <rect width="54" height="12" x="48" y="4" fill="#B3E1E2" rx="4"/>
            <rect width="157" height="12" x="48" y="24" fill="#B3E1E2" rx="4"/>
          </g>
          <g transform="translate(0 112)">
            <circle cx="20" cy="20" r="20" fill="#E3764C"/>
            <rect width="54" height="12" x="48" y="4" fill="#B3E1E2" rx="4"/>
            <rect width="118" height="12" x="48" y="24" fill="#B3E1E2" rx="4"/>
          </g>
          <g transform="translate(0 168)">
            <circle cx="20" cy="20" r="20" fill="#7930E3"/>
            <rect width="54" height="12" x="48" y="4" fill="#B3E1E2" rx="4"/>
            <rect width="118" height="12" x="48" y="24" fill="#B3E1E2" rx="4"/>
          </g>
        </g>
      </g>
    </g>
    <g fill-rule="nonzero" transform="translate(151 254)">
      <path fill="#FF5678" d="M367.480824,160.055086 C362.750392,169.323203 357.752866,178.344845 352.706918,187.444239 C350.035166,192.261017 341.419742,212.184194 339.194714,212.945393 C336.798651,213.764906 322.120964,205.115461 317.908328,203.42123 C310.422582,200.40987 303.309579,197.559083 295.490349,195.70235 C286.734721,193.623243 277.909584,192.090335 268.827502,192.863196 C264.849942,193.202198 258.266017,194.165957 262.219368,188.56621 C265.101204,184.48264 267.892662,180.722521 271.806961,177.772585 C274.655996,175.625057 278.831927,171.686107 282.167517,170.25157 C285.667112,168.746279 290.828646,169.079838 294.589874,169.168476 C298.655685,169.264889 318.035842,175.324558 319.101889,169.008709 C321.078562,170.811016 322.229735,170.113948 324.494593,170.994108 C327.047635,171.986232 328.639284,173.912166 331.174364,175.075345 C332.81912,175.830324 335.850906,178.814471 337.679192,178.832354 C340.10962,178.856458 340.764085,176.839553 342.509588,175.35059 C346.419985,172.014223 351.626814,169.818488 355.86991,166.919869 C359.606145,164.366471 363.163534,161.704997 367.480824,160.055086 Z M324.904049,86.7959608 C324.57173,91.0269214 325.710993,94.95829 325.683627,99.31174 C325.671898,101.211498 325.585886,103.110476 326.161383,104.940798 C326.678234,106.581534 326.316983,109.529085 326.59144,111.247059 C321.755241,109.771723 312.770409,107.583696 307.832562,109.573176 C303.11209,111.475275 302.518357,120.270716 302.351806,124.548488 C302.238427,127.464051 303.530165,131.955595 302.551198,134.747109 C302.086563,136.071813 302.090786,136.483739 302.120947,136.592385 L302.122947,136.599034 C302.03987,136.551182 301.668773,136.538733 300.314114,137.518337 C298.988752,138.475628 297.406922,139.003815 296.097198,140.06097 C293.715459,141.986475 293.30727,144.168472 292.132041,146.959205 C290.990432,149.669579 287.94905,152.07861 284.553938,151.980306 C287.282852,147.02377 291.072305,142.394513 288.897775,136.572749 C287.257299,132.178729 290.132685,127.022256 292.39479,122.84825 C293.143874,121.465756 301.446338,110.874744 297.767387,110.128104 C295.37861,109.642827 289.895371,120.885296 288.846028,122.84825 C285.92007,120.865791 284.606048,118.42245 286.857989,115.43667 C288.587605,113.143697 290.711309,111.183084 292.39479,108.808971 C295.128395,104.955621 297.79241,100.356412 301.038956,96.9337263 C306.740745,90.9239365 316.693851,86.8326296 324.904049,86.7959608 Z M302.122947,136.599034 L302.127951,136.602372 C302.157139,136.622856 302.138636,136.645638 302.123441,136.600542 L302.122947,136.599034 Z M401.530591,80.2294664 C405.174073,83.7273378 409.782698,86.6286004 413.303585,90.2993793 C416.385632,93.5129658 420.535893,98.9182714 422,103.211361 C414.487365,104.662382 402.004749,109.106777 399.013283,117.007558 C387.329305,106.259256 382.809449,125.909269 380.491082,134.126268 C373.653108,131.161139 375.016562,121.289538 375.10714,115.525956 C375.177418,110.954033 377.95649,105.542497 371.331692,105.167864 C366.381053,104.889031 361.573312,106.9094 357.108366,108.801257 C351.536944,111.161989 345.692671,114.693613 341.192588,118.749929 L336.504018,115.092216 C344.195468,110.764856 348.204492,102.491023 352.706918,94.9150275 C354.142915,92.499775 356.061234,89.8139717 357.108366,87.2032249 C357.833003,85.3978216 358.342903,81.7537003 359.137035,80.1484648 C360.386408,77.6249503 372.589656,76.9302051 375.822405,76.2798549 C384.356402,74.563242 394.556749,73.5343647 401.530591,80.2294664 Z"/>
      <g fill="#000">
        <path d="M399.996096,136.664307 C403.14562,136.503174 406.281131,137.206867 409.430655,136.900169 C406.696035,134.51742 403.962193,132.135451 401.227573,129.753481 C400.01945,131.875458 399.931488,134.289343 399.996096,136.664307 L399.996096,136.664307 Z M325.27627,87.6868045 C317.124565,87.7226119 307.180915,91.8186656 301.517843,97.800835 C298.517781,100.971346 296.038484,105.228533 293.500807,108.79059 C291.79916,111.180344 290.137216,113.486807 288.071265,115.586988 C285.058745,118.647741 285.921246,119.347542 289.315194,121.652448 C290.389425,119.638672 296.08519,108.872324 298.472631,109.356502 C302.100108,110.092889 295.094251,121.465627 294.329054,122.882354 C292.063049,127.074154 288.403654,132.929441 290.047695,137.350096 C292.217177,143.185922 289.071547,146.512117 286.340038,151.484674 C289.208549,151.567965 289.491118,150.448595 290.479724,148.001238 C291.749343,144.855636 293.134945,142.227685 295.819745,140.052776 C297.898929,138.36905 301.299885,137.659908 302.276813,135.626671 C303.484935,133.113148 302.726743,128.149933 302.824827,125.353842 C302.973506,121.105218 302.984405,111.061245 307.664319,109.173573 C312.567643,107.195604 321.384128,109.059924 326.177691,110.524913 C325.57908,106.780705 323.691389,104.334905 323.717077,100.174242 C323.7451,95.8189739 324.943881,91.9330936 325.27627,87.6868045 L325.27627,87.6868045 Z M262.651672,157.171043 C266.915904,155.820482 270.958285,154.397527 275.345511,153.477433 C279.936684,152.513747 280.243385,151.411502 282.83166,147.472689 C284.793303,144.487443 287.173738,142.159963 286.617938,138.503717 C286.261417,136.158333 284.977788,135.01561 285.36389,132.378318 C285.602867,130.743633 286.365729,128.958712 286.916856,127.404205 C287.592531,125.497072 288.992924,123.333839 285.736758,123.23965 C283.938587,123.187495 283.850625,124.136391 282.63394,125.72982 C280.388173,128.673032 277.803789,131.345353 275.414013,134.167909 C271.263431,139.068851 266.862192,144.284275 262.228985,148.820137 C257.12872,153.811376 252.726704,159.831688 249.430058,166.22175 C248.821327,167.401837 245.119119,174.352362 246.698551,175.715378 C248.148764,176.96708 256.215622,174.047999 257.686853,173.706272 C264.035719,172.231942 271.242413,171.705729 277.240984,169.027959 C280.297097,167.663386 287.041403,166.034928 289.455311,163.923849 C291.699523,161.961449 291.598325,157.207629 290.296014,154.441119 C286.651411,156.709439 260.302374,165.267405 262.651672,157.171043 L262.651672,157.171043 Z M341.979018,118.163563 C346.233911,114.318939 351.26334,111.234833 356.516955,108.949388 C361.216331,106.905253 367.053767,104.626813 372.281697,104.981773 C378.795587,105.423138 376.073422,110.672035 376.05007,115.141731 C376.019711,121.072524 373.421314,129.616479 380.500348,132.693579 C382.811503,124.481232 387.682132,105.061951 399.350779,115.82285 C402.332942,107.926542 412.968613,105.254221 420.457878,103.804022 C419.100297,99.8146114 414.976961,96.2035141 412.119347,93.2089266 C408.544025,89.4631624 405.721443,85.0728651 402.13989,81.3979372 C395.063973,74.1407134 382.245585,76.4713074 373.287427,78.2803591 C370.297481,78.8836358 361.628897,79.6418181 360.180242,81.8385236 C359.271816,83.2163297 359.779351,86.5822243 359.10601,88.2667285 C358.178121,90.5879814 356.59324,92.7395384 355.321288,94.8833111 C350.681075,102.705669 345.960683,110.578624 338.019929,115.057661 L341.979018,118.163563 Z M367.945847,160.304968 C363.744667,161.917857 360.654304,164.614309 356.927965,166.884965 C352.409965,169.638242 347.111978,172.217152 343.057143,175.618076 C341.573457,176.861993 340.739761,179.010437 338.691714,179.149774 C336.910668,179.271208 334.196286,177.201385 332.616855,176.477453 C329.967861,175.26078 327.437189,173.417478 324.774962,172.333137 C322.5868,171.441844 321.618433,171.623995 319.725295,169.891229 C318.663518,176.213568 299.346028,170.303792 295.293527,170.207268 C291.544614,170.118528 286.400757,170.563006 282.911839,172.07003 C279.587169,173.506218 276.987995,176.667388 274.14206,178.82128 C270.241352,181.774611 266.518907,184.761415 263.646505,188.849684 C259.706096,194.455098 265.650959,192.868675 269.615495,192.530061 C278.664732,191.75631 287.467204,193.912538 296.191057,195.993258 C303.988577,197.852907 311.689574,200.083863 319.153927,203.099468 C323.352001,204.795649 327.770358,206.354827 331.718547,208.559317 C333.800067,209.722279 337.176113,212.568188 339.564331,211.747731 C341.754832,210.995776 343.937546,204.714693 345.265546,202.205841 C347.844479,197.336036 350.557303,192.547965 353.220308,187.725644 C358.249737,178.616555 363.231682,169.583752 367.945847,160.304968 L367.945847,160.304968 Z M316.248054,280.864555 C318.837107,279.376992 323.057749,279.777878 325.92081,279.154362 C329.15596,278.449891 332.409015,277.302498 335.493929,276.106065 C338.617762,274.894841 341.569566,273.655594 344.424063,272.140007 C345.729489,271.447212 347.469276,270.764536 348.67584,269.803185 C349.648099,269.027878 350.002284,267.587799 350.899033,266.884884 C353.237435,265.050143 353.924786,266.20143 354.238495,262.661946 C354.578667,258.817323 352.42242,256.640078 349.738397,253.763032 C347.335388,251.188013 344.213888,248.962506 341.194363,247.151119 C339.858578,246.350124 338.431719,245.448712 337.068688,244.684302 C335.006631,243.526011 332.24321,241.600974 331.161192,244.086474 C333.414745,244.661727 333.911381,247.541109 331.877348,248.575631 C330.760301,249.143878 329.069554,248.309411 327.810056,248.913466 C325.865541,249.846015 323.994977,252.448277 322.330697,253.849436 C316.867684,258.450687 311.642868,260.175668 304.492221,260.545419 C289.551059,261.316056 273.904639,259.611314 259.250716,257.395925 C255.479229,256.825342 251.713968,257.443409 247.907451,257.307186 C244.203687,257.174854 240.341902,256.364517 236.70119,255.738666 C229.688325,254.533669 222.296365,253.541959 215.392479,251.768716 C207.043052,249.624165 198.664822,246.84987 190.826044,243.257455 C183.306421,239.810605 174.807535,234.115673 166.361583,233.676643 C169.965708,237.206785 175.366447,238.566687 179.701517,240.891832 C183.244925,242.791181 188.785782,244.010967 191.024543,247.141 C192.481762,249.178129 193.212707,252.920001 194.313405,255.308976 C195.530868,257.952496 196.65414,260.638049 197.781305,263.321271 C198.913141,266.020836 200.092461,268.721958 201.011785,271.502479 C201.580816,273.227463 201.826022,276.803529 203.170368,277.983616 C205.31494,279.865841 212.492832,280.701087 215.383138,281.326937 C220.779207,282.496906 226.934243,282.34122 232.438514,282.422176 C234.713083,282.455648 237.005555,282.766238 239.178929,282.808274 C242.231148,282.866654 241.940016,282.338107 241.896424,279.687582 C241.871514,278.095709 241.90343,275.200759 244.031654,276.511621 C245.481867,277.405249 244.483921,281.361966 244.215364,282.767795 C256.364301,283.97824 269.040238,284.586965 281.131571,284.182188 C293.022851,283.783635 304.50234,282.249366 316.248054,280.864555 L316.248054,280.864555 Z M371.114053,252.965928 C373.257845,237.566416 375.870252,221.910024 378.794032,206.709787 C381.748946,191.349974 385.301697,176.129499 389.298151,160.827289 C386.658498,160.19521 384.018845,159.564689 381.379193,158.933389 C381.281111,162.157611 380.191311,164.958372 379.72659,168.167803 C379.085164,172.5978 377.859137,176.899358 377.12508,181.314564 C375.730914,189.707505 373.147309,197.919852 370.871182,206.104175 C368.551466,214.448075 367.77615,223.044184 365.64481,231.430119 C363.887899,238.33861 362.990369,245.948458 362.009549,253.050775 C359.629892,270.281135 356.239055,287.544967 353.658563,304.783891 C351.23843,320.946257 350.995559,337.437115 351.134899,353.750494 C351.220525,363.710399 352.73924,373.641499 352.659841,383.614635 C352.640379,386.079897 352.847441,388.537372 352.975881,390.998742 C353.066179,392.7354 352.133624,397.54916 352.924506,399.00403 C353.425036,399.924902 355.575836,400.77416 356.337139,402.053105 C357.541367,404.076224 357.795135,406.494779 359.729531,408.025935 C361.297286,401.699704 360.556223,393.350354 360.213713,386.894126 C359.882104,380.673759 360.525863,374.244776 360.652749,367.928665 C360.900289,355.53853 361.556503,343.329767 362.191701,330.933405 C362.887616,317.339051 364.867161,303.413868 366.800779,289.92149 C368.559249,277.653565 369.732342,265.167684 371.114053,252.965928 L371.114053,252.965928 Z M313.736065,59.844224 C312.886019,59.7648252 312.035976,59.6862046 311.18593,59.6068055 C311.312815,61.3987318 310.934498,64.3006873 312.197109,65.2355716 C313.1538,65.9439351 315.091307,65.7111871 316.251168,65.9377076 C320.053015,66.6811002 324.45892,67.3030589 328.232743,65.9486056 C329.699305,65.4223927 328.757405,64.5980444 330.776648,64.9405497 C333.209239,65.3538916 332.321053,65.7392103 333.023195,67.2571321 C333.564204,68.4286565 333.842879,70.4221938 334.457062,71.8288016 C335.279081,73.7110247 336.944919,77.0792547 336.232658,79.2526074 C335.540635,81.3652435 332.957807,82.003549 331.860221,84.3964167 C331.043651,86.1751098 331.2367,88.7610261 330.812457,90.7203131 C330.246538,93.333474 329.531163,95.9365156 329.215121,98.5979387 C328.817344,101.9506 328.953568,105.884742 333.106486,106.404728 C336.960488,106.888128 339.716126,105.648881 342.30051,102.841114 C347.236527,97.4809037 352.87235,89.9138683 355.771998,83.1711812 C356.110614,82.3834188 356.944314,81.0686647 356.828325,80.2256344 C356.59869,78.557477 356.498273,80.2458733 355.969719,79.087582 C355.465297,77.9798884 354.673637,76.9749461 354.208135,75.7458186 C352.533734,71.3298335 351.34663,66.7013391 350.675625,62.0269181 C350.37126,59.9096114 350.269285,57.817993 350.32144,55.6796692 C350.338565,54.9495097 350.77682,52.7574747 350.515269,52.2577283 C350.249047,51.7509759 348.860328,51.5174494 348.427522,51.014589 C347.624963,50.0828185 346.246366,47.451754 345.3574,46.7542882 C344.263708,45.8972462 341.817106,46.5760297 341.372623,44.8712866 C340.661917,42.1429192 357.480651,37.6989108 349.623189,34.0582334 C343.75695,31.3399855 334.759091,45.0806819 332.707931,34.2684074 C332.35219,32.3955252 333.029423,29.8532006 332.208181,28.1367812 C331.300532,26.2397678 328.829799,25.5306261 327.104022,24.6074181 C324.901847,23.4304447 322.677096,22.2207777 320.537196,20.9317117 C319.069078,20.0482033 316.954088,17.7020409 315.391781,17.4871966 C316.006741,20.6717189 314.827421,23.8282181 314.80796,27.006513 C318.19257,26.090311 320.521627,26.0708505 323.861867,27.7000868 C325.452975,28.4753945 331.446875,32.8758113 328.410226,34.9923394 C325.949611,33.5374696 323.317744,32.2756483 320.575338,31.4201629 C319.493324,31.0823282 318.14275,30.6230595 316.992231,30.5997066 C314.321443,30.5459958 314.697424,30.8254491 313.694806,32.8400039 C312.727999,34.7806086 312.935838,39.8419052 310.813843,41.0811522 C308.619451,42.362434 310.311754,40.5689509 308.438077,40.9830711 C307.369295,41.2197113 306.204765,42.0144796 305.226281,42.4636288 C306.566735,43.9192772 309.272551,45.2480425 310.161518,46.8648239 C311.45838,49.2218842 311.00845,54.0971383 311.21162,56.6760485 C312.909373,56.0681013 314.696644,56.0431919 316.417751,55.5917075 C318.035325,55.1666893 320.278759,53.3272794 320.447678,56.0315156 C320.636057,59.0447852 315.874407,59.844224 313.736065,59.844224 L313.736065,59.844224 Z M335.833323,139.179387 C335.965655,136.575567 336.110445,133.972525 336.400019,131.379603 C336.595404,129.638274 338.248009,124.587876 337.313895,123.058277 C336.298044,121.394791 332.893196,121.288925 331.254604,120.889595 C328.113643,120.123628 325.101124,119.496221 321.908788,118.990247 C318.972555,118.525529 316.206018,118.427448 313.247211,118.292781 C310.025294,118.147216 309.226626,117.291731 308.514362,120.843668 C307.954673,123.636645 307.203489,126.545606 307.099181,129.405526 C307.001097,132.089524 307.811442,134.419339 305.152329,136.228391 C310.991323,136.228391 318.595794,131.027757 323.924141,135.678047 C331.545737,142.328102 318.282088,144.243797 314.784606,145.7119 C317.69204,147.125513 322.008427,148.235543 323.376905,151.464435 C324.912744,155.083316 322.684104,156.622256 319.273807,156.911828 C319.594519,158.30676 320.822101,159.212842 321.187963,160.890341 C321.723522,163.349374 319.986068,162.535145 322.203034,164.437608 C325.122142,166.94179 331.131613,168.616174 334.711607,170.21116 C335.549976,170.586359 336.398461,170.938206 337.25629,171.267478 C338.597524,172.461576 339.587686,172.234277 340.227553,170.584802 C342.063866,169.42184 343.698567,166.827362 345.32782,165.318002 C348.952184,161.959892 352.95253,159.012788 357.259576,156.588005 C355.47386,155.848505 353.33863,157.519776 351.625308,156.706325 C350.240483,156.048559 350.762032,154.852125 349.933004,153.956162 C350.265393,152.787752 349.914322,152.360398 348.879791,152.674102 C348.362914,152.72937 347.881844,152.641408 347.436583,152.411774 C346.570191,151.337552 346.180977,150.985706 346.123375,149.326889 C346.062656,147.566878 347.081618,146.945698 347.47239,145.536755 C348.743565,144.670372 348.714763,143.818779 347.385986,142.984311 C346.839527,142.090683 346.54139,141.121548 346.492348,140.076128 C346.23936,136.19414 349.781209,134.629513 352.482359,132.576037 C347.645981,132.044375 347.830469,126.369683 351.176933,123.888853 C354.645613,121.316949 361.990089,122.370153 366.184263,122.950077 C367.056881,123.069954 369.413186,124.195551 370.295145,123.477847 C370.836153,123.038039 370.453945,119.319519 370.478855,118.66331 C370.53568,117.173411 370.89765,115.397053 370.660229,113.914939 C370.16359,110.811372 371.216026,112.374442 368.982714,112.288037 C363.667602,112.081756 356.899163,116.723483 352.223141,118.911626 C346.988986,121.361319 343.625395,121.738074 343.570906,127.811319 C343.518751,133.562297 341.906624,139.292258 341.202924,144.951382 C340.895445,147.422871 340.675928,160.262933 336.154034,155.524681 C334.401014,153.686828 335.524286,150.86038 335.654284,148.593616 C335.831767,145.474481 335.726678,142.307084 335.833323,139.179387 L335.833323,139.179387 Z M43.4383294,331.684582 C46.025827,332.14385 50.2402406,330.657844 53.0628235,330.502158 C57.9988406,330.23049 63.0819809,329.760323 67.9175809,328.732807 C71.700745,327.928698 76.0116837,327.221113 78.0519459,323.557859 C79.8758045,320.283819 80.5203436,316.183873 81.5027209,312.610919 C82.0242681,310.713906 83.370172,307.962963 83.370172,306.000562 C83.370172,303.448897 83.0261061,303.951758 80.3662147,302.555271 C76.9995099,300.788254 73.7238816,298.326106 70.092511,297.3235 C68.9941479,297.108654 67.8950065,296.898482 66.7950865,296.692199 C65.3721187,295.866293 64.5687802,296.272629 64.3827357,297.908871 C62.9940187,299.373861 62.1797821,302.074205 61.014474,303.787511 C58.3576964,307.69363 55.2027245,310.355832 51.0809437,312.608585 C43.6640738,316.661047 36.7531829,319.788744 28.8093167,322.43849 C24.4314329,323.898808 20.3945009,325.947615 16.1154777,327.55739 C12.6872771,328.847235 7.95598671,329.239559 5.32256197,332.110378 C2.35129914,335.34939 6.91834108,336.527142 9.45679749,338.716841 C11.5367593,340.511104 11.5772376,340.922888 14.422395,340.051833 C16.5420567,339.402631 18.4211839,338.161827 20.4567752,337.320352 C27.4291623,334.439414 35.8681093,332.522163 43.4383294,331.684582 L43.4383294,331.684582 Z M202.786603,383.060399 C200.188207,382.497601 197.589033,381.935582 194.990638,381.374338 C197.54622,386.146841 202.921271,393.130059 199.063378,398.653739 C197.621727,400.717336 195.223388,401.305823 193.081152,402.352799 C190.488206,403.620068 188.094537,405.243076 185.643265,406.753216 C175.535366,412.979031 165.263219,419.292807 154.612756,424.635115 C157.946767,425.711672 163.073499,426.45662 166.507149,425.518623 C170.505938,424.425719 174.208145,421.917643 178.313579,420.820848 C185.678294,418.854556 193.430667,417.180172 200.912925,416.171337 C207.02904,415.34699 222.3384,417.20975 221.595,408.008032 C220.888965,399.271806 215.672714,390.937246 214.120526,382.300661 C210.311674,383.146805 206.677968,382.998906 202.786603,383.060399 L202.786603,383.060399 Z M357.676035,243.232546 C360.637958,228.690075 362.407327,213.900845 365.900914,199.462683 C367.643817,192.259949 368.872178,184.958355 370.574603,177.754064 C371.367043,174.402181 371.965654,171.017605 372.737077,167.671949 C373.51862,164.285037 375.200024,161.158896 375.584569,157.657556 C372.754201,158.358136 372.099542,164.843165 371.241716,167.282738 C369.667732,171.758662 367.951296,176.059441 365.928938,180.344651 C362.714028,187.155839 359.302953,193.727273 355.676253,200.330623 C351.85261,207.295939 347.813342,213.994256 343.036125,220.354738 C341.466813,222.4448 339.337032,224.082598 338.325074,226.37505 C336.733966,229.981476 336.065294,234.27992 334.545802,238.03269 C335.616142,238.576028 338.380341,238.711473 339.692772,238.970688 C342.133926,239.452531 343.844134,239.880663 346.18876,241.042068 C350.319104,243.087759 353.78934,245.512542 356.54887,249.192919 C357.242451,247.30369 357.423045,245.232311 357.676035,243.232546 L357.676035,243.232546 Z M242.550304,354.187968 C242.501263,340.182607 242.302764,326.057371 242.5324,312.155543 C242.595453,308.295351 242.909938,304.130795 243.469629,300.300184 C243.8207,297.892524 245.888207,292.774403 244.52907,291.620005 C243.367654,290.632965 237.236749,291.282948 235.732046,291.247919 C232.813716,291.180197 229.904728,291.050201 226.980949,290.830684 C226.980949,296.0212 229.007978,301.915406 229.949877,307.049877 C230.827944,311.839504 231.549548,316.655596 232.274265,321.467021 C233.842799,331.886192 234.288839,342.449372 235.992041,352.896566 C237.534887,362.369179 239.570479,371.802091 240.692973,381.273144 C241.30871,386.472221 242.554975,391.377055 243.52334,396.573019 C244.029319,399.282705 245.873417,410.442154 248.196248,411.53973 C248.687437,407.536308 246.681426,402.70231 246.321792,398.654517 C245.95126,394.475174 245.664019,390.267804 244.986786,386.066663 C244.191232,381.134586 243.789563,376.080293 243.484419,371.087499 C243.298374,368.032194 243.241549,364.986232 242.977662,361.933262 C242.786947,359.717873 241.948579,356.360542 242.550304,354.187968 L242.550304,354.187968 Z M315.510881,166.904425 C315.607406,165.379498 311.66155,165.440993 310.926715,163.687988 C309.436024,160.128266 312.833866,160.768907 314.923168,160.400714 C314.178212,158.421188 300.229545,159.142006 303.479486,153.798143 C305.733816,150.090521 314.28252,155.765214 316.56721,152.242078 C318.068798,149.927831 313.982047,149.609456 312.361359,149.377487 C309.922541,149.027976 304.176959,150.157465 304.366116,146.991625 C304.604315,143.013891 315.773989,140.268398 318.907167,139.099988 C318.559987,136.376291 305.11652,140.24816 303.171227,141.351961 C298.767655,143.851473 295.393945,148.33518 294.747849,153.318635 C293.99511,159.117097 296.934456,163.683317 302.72363,165.106272 C305.137538,165.699429 306.921698,165.765595 309.15501,166.657666 C310.624683,167.243817 315.380884,168.706471 316.38817,167.226692 C316.095481,167.11927 315.803571,167.011848 315.510881,166.904425 L315.510881,166.904425 Z M394.429552,130.839379 C394.652183,128.36322 396.736038,123.702032 394.335363,122.075131 C390.975663,119.798248 389.583833,123.55024 388.82253,125.80377 C387.89153,128.55549 383.978367,135.291171 387.400341,137.006034 C388.195895,137.404586 391.96816,136.940646 392.633718,136.67754 C394.487158,137.16094 395.084989,136.466588 394.429552,134.592927 L394.429552,130.839379 Z M312.442316,330.801074 C312.23136,324.033477 315.260227,315.897415 316.976662,309.269155 C318.922736,301.758945 319.947926,294.099276 322.009205,286.671579 C319.715954,286.947919 317.401685,287.173662 315.13568,287.633709 C312.044539,288.261894 311.98927,288.163034 312.211122,291.196544 C312.542733,295.751865 312.108369,300.218449 311.873284,304.772214 C311.402333,313.889865 312.549738,323.157752 311.786877,332.217799 C312.467223,332.39061 312.685184,331.918108 312.442316,330.801074 L312.442316,330.801074 Z M398.030565,153.436955 C405.457553,154.574229 412.575507,156.929732 419.333827,160.094794 C423.059386,161.839237 427.162484,163.713676 431.325523,164.410363 C435.950945,165.184892 440.855828,164.821369 445.579333,165.120283 C447.244391,165.22537 451.621497,166.034928 453.245299,165.054896 C454.853534,164.084204 454.727429,162.4394 454.802937,160.478556 C454.998321,155.435163 452.715967,150.496857 450.664029,145.971893 C448.904002,142.089905 447.572888,139.125676 444.841382,135.786247 C441.333781,131.497145 438.279227,126.868651 434.994257,122.391949 C432.517297,119.017491 430.014648,115.691296 427.490203,112.320731 C425.684248,109.907625 425.769876,109.077049 423.047711,109.347161 C420.36758,109.613381 417.668767,111.198248 415.144322,112.038164 C411.396967,113.285195 406.859505,113.969428 403.442202,115.962965 C401.23302,117.252031 401.134161,117.48945 401.159848,119.739088 C401.18398,121.834599 401.859655,124.390157 403.112147,126.029512 C405.715215,129.432771 410.030044,131.234038 413.733032,132.931776 C415.875268,133.913365 417.726372,135.305961 419.63352,136.660415 C421.687794,138.120733 425.832929,138.980889 427.405355,140.645155 C431.982515,145.492385 423.650214,144.534148 421.321935,144.387805 C416.297953,144.071766 411.301219,144.120028 406.239875,144.116136 C400.715365,144.112244 395.235226,143.855365 389.788559,144.03518 C386.598559,144.140267 382.938386,142.521929 380.871657,139.82392 C379.871377,138.51695 379.481383,137.281595 378.172846,135.925585 C376.457966,134.150005 374.966497,132.279459 372.880308,130.905544 C369.466897,128.657463 363.264375,127.385523 359.200978,128.224661 C360.655862,128.427829 367.49903,130.758423 364.48651,133.687623 C364.11987,134.04414 359.717854,134.277666 358.761166,134.717475 C357.034609,135.510686 354.858122,136.663528 353.845387,138.338692 C356.794077,137.844394 367.730222,137.272254 362.151223,142.932157 C360.781967,144.321639 356.850122,145.708008 360.195811,147.185452 C360.964119,147.524844 362.502294,147.044558 363.491677,147.350477 C364.962131,147.805854 366.164023,149.024083 367.541842,149.673287 C371.449556,151.517367 376.835505,152.654641 380.913694,152.250641 C386.552631,151.690956 392.42899,152.698233 398.030565,153.436955 L398.030565,153.436955 Z M248.488159,323.979764 C248.680431,332.110378 248.386963,340.289252 248.560553,348.45723 C248.745819,357.18022 249.864421,365.728845 250.397645,374.363874 C250.876379,382.102942 251.92103,389.694886 252.769519,397.397366 C253.257594,401.833592 253.820396,406.075988 254.570803,410.478741 C255.273723,414.598926 255.393603,418.229484 250.470039,419.337178 C241.056499,421.45604 239.593832,407.908392 237.774643,402.200227 C235.058705,393.681183 233.31736,384.737898 231.971456,375.906707 C229.466472,359.459439 226.135575,343.241028 224.835599,326.654422 C224.035374,316.440753 222.874737,306.331394 222.216186,296.127064 C222.086967,294.1273 222.596838,291.046309 220.841481,290.155794 C219.785153,289.621017 216.877721,289.616347 215.545051,289.228693 C211.831946,288.148244 208.406859,286.557151 204.784051,284.906119 C207.355201,298.355687 208.204467,311.738307 210.133414,325.305416 C211.15627,332.504259 213.114796,339.963872 214.811771,347.049844 C216.570242,354.391915 216.961013,362.297563 218.989599,369.480059 C219.883235,372.645898 220.639868,373.935743 219.343005,377.184875 C217.751897,381.173506 218.807446,382.12785 220.802559,386.044868 C224.472073,393.251495 227.273638,401.756527 226.651674,409.880912 C226.144138,416.516178 221.132613,419.989496 214.924644,421.779864 C207.159037,424.018604 199.02757,423.753941 191.215258,426.296265 C184.408677,428.510875 177.493115,430.147117 170.883476,433.070868 C168.218135,434.249398 165.685906,435.64822 162.72632,435.864623 C158.667592,436.159645 155.930636,433.803363 152.096874,433.31218 C149.700871,433.006259 146.192492,434.149761 144.812337,431.637015 C143.717867,429.645034 144.956347,425.298328 146.330274,423.69478 C150.188945,419.1885 157.916408,415.26214 163.120205,412.603054 C169.117999,409.538407 174.921186,405.702347 180.478389,401.747188 C183.846651,399.34887 187.281857,397.047856 190.647784,394.645647 C192.87409,393.055332 193.720242,393.045212 193.492941,390.519236 C193.311567,388.504679 192.403919,386.550842 192.24512,384.488026 C192.123685,382.907829 192.677148,380.753936 191.930634,379.722528 C191.381842,378.962012 189.320563,378.425679 188.510218,377.849647 C185.546739,375.747908 184.873398,373.14798 183.527495,369.951002 C180.470605,362.689887 176.958334,355.632719 174.006532,348.313221 C167.668565,332.597668 163.80133,316.07256 158.546936,300.036299 C153.17889,283.65286 148.379098,266.453637 145.422626,249.456026 C141.46665,250.660244 137.733306,255.989317 134.583004,258.62583 C130.326555,262.189444 125.965797,265.635516 121.791862,269.296433 C114.950251,275.298062 108.023013,281.134666 102.369284,288.321833 C99.6455616,291.783474 97.4153629,295.509 94.9493003,299.145784 C93.5247757,301.246744 92.1967761,303.624821 90.65393,305.623807 C90.4063897,305.944517 90.3993839,306.603061 90.1323827,306.876288 C89.5446691,307.476451 88.422953,306.677012 88.0461935,307.07245 C85.7218051,309.504239 85.7521638,316.408837 85.0274466,319.61749 C84.0295007,324.039704 82.9085632,329.124353 79.4570098,332.171872 C74.1255507,336.878987 64.2932163,337.608369 57.5457952,337.852793 C48.8865529,338.166496 40.4865275,340.580382 32.2709895,343.173303 C28.4387846,344.382192 24.7069966,345.796585 20.8607798,346.970445 C18.6484851,347.646892 16.1248188,348.994339 13.7622873,348.735126 C10.9132378,348.42298 8.6635785,346.024662 6.57661083,344.242077 C3.23792957,341.390718 0.146788702,338.579838 0.251716247,333.901525 C0.374868349,328.949207 3.05655565,325.211229 7.28108891,322.751416 C15.4483642,317.99526 24.5832265,314.946963 33.3864781,311.660467 C36.7601886,310.400203 39.6481596,309.006048 42.8739685,307.309867 C47.4316695,304.912331 52.6782798,302.955378 56.7222174,299.790316 C57.9147704,298.85621 62.2965464,295.994733 62.6701923,294.518846 C62.7192331,294.326576 61.6239838,292.073045 61.6193132,291.715752 C61.6084151,290.796434 62.152537,289.800833 62.4872613,289.013849 C64.5936898,284.059975 68.1269781,279.289807 70.8281263,274.618502 C75.7750415,266.062091 80.7406389,257.460534 86.4761025,249.413212 C97.9127789,233.369167 110.759968,217.659842 124.626121,203.654483 C131.385997,196.826948 137.227327,189.082432 144.082171,182.349086 C146.798109,179.682214 149.665063,177.510418 153.011528,175.779209 C156.741759,173.849502 160.928928,173.471189 165.204837,172.881924 C175.566504,171.455077 184.219518,174.52128 193.947543,177.189709 C203.143902,179.711794 212.350379,181.83922 221.598114,184.466393 C231.754275,187.351223 241.806126,190.118511 251.930372,193.262556 C257.339674,194.942389 262.904662,195.973798 268.339651,197.585909 C270.95673,198.361217 280.85056,203.221681 283.032495,201.625138 C276.15897,198.398581 269.117301,195.457704 261.763484,193.510094 C259.597896,192.937176 258.214627,193.571589 258.294806,191.083754 C258.339176,189.726965 259.863341,187.895339 260.412132,186.778305 C261.726119,184.104427 263.213696,181.491266 264.499662,178.809604 C259.83765,180.133699 247.306504,184.717045 243.793455,179.978793 C240.116936,175.01947 243.186281,165.296207 245.49043,160.440413 C251.505349,147.764598 261.73546,137.186628 271.703242,127.631504 C273.859489,125.565573 278.50749,122.867564 279.656449,120.2365 C280.005964,119.436282 279.245439,118.260866 280.033988,117.221673 C280.502603,116.603606 282.385622,116.180924 283.138361,115.514595 C285.879209,113.087476 288.065815,107.980253 289.959733,104.798066 C291.943169,101.465643 293.730443,97.8568813 296.222972,94.8669643 C300.299605,89.9776988 304.508567,84.7949686 311.110422,83.6514673 C314.347909,83.0910038 317.787007,83.3899177 320.889825,82.271326 C324.64263,80.9184294 328.208614,78.7871115 331.998003,77.3859526 C331.057661,75.4523538 330.29558,72.3775888 328.471722,72.1666366 C326.715586,71.9626901 324.139764,73.4728279 322.129862,73.4619299 C319.194405,73.4455831 316.688643,72.9761949 313.855942,72.4165097 C310.720431,71.7961079 309.687455,71.908979 308.544722,68.5064987 C307.345941,64.9421066 307.647972,60.8024611 307.658091,57.1002884 C307.662761,55.2912367 308.021617,53.0454907 307.867489,51.2699113 C307.636295,48.5944767 307.116305,48.491725 305.019997,46.7900956 C302.400582,44.6642264 299.171659,41.8510111 302.380344,38.1574012 C304.113904,36.1615284 307.676774,37.7137008 309.212613,35.5691495 C310.776478,33.3848988 310.700971,27.8978058 311.177369,25.3321284 C306.355779,27.7032005 308.123593,18.8393147 308.122812,16.7064398 C308.122035,13.6028733 306.042851,8.02159112 309.035911,5.43956701 C310.426962,4.24079788 311.459938,5.23250688 313.050269,4.54360386 C314.864785,3.75739813 316.007519,1.69535957 317.938022,0.89592069 C321.774897,-0.693616015 325.69273,1.22052246 329.632358,0.904483327 C334.151138,0.542517329 338.589739,-0.156505179 343.133429,0.56898366 C345.286562,0.911489122 346.192654,1.72961012 348.014176,2.64659065 C349.765641,3.52854221 351.542795,3.76985287 353.445274,4.33732216 C355.138358,4.8425177 356.622822,5.09783995 357.766333,6.57372713 C358.670868,7.74135939 358.30267,9.70531683 359.215768,10.7118158 C360.116409,11.7035248 361.898233,11.5595168 362.971687,12.7372686 C364.002327,13.8675366 364.618843,15.7357482 365.154402,17.1423558 C365.87834,19.0370338 365.963189,19.748511 367.237477,21.2648761 C368.348296,22.5881927 369.947965,23.6522949 370.875074,25.1616542 C373.059346,28.7198187 373.115394,33.8651849 372.417921,37.8678284 C372.18128,39.2308443 370.206405,42.7539802 370.515442,43.9138281 C370.809688,45.0176297 372.661569,44.7272786 373.499938,45.4255227 C374.224654,46.0287993 374.862186,48.7166887 375.433554,48.8809358 C376.668142,49.2351174 378.190748,46.7963231 379.12642,46.4304649 C380.75178,45.7944945 381.432126,45.1421773 382.332769,47.5389371 C382.999883,49.3176302 382.070438,51.7315154 381.580807,53.4292525 C380.958064,55.5901506 380.269932,58.1924137 378.619663,59.8263206 C376.679819,61.7474648 375.126853,60.697374 372.986175,61.7318962 C369.778268,63.282512 370.724837,68.1305212 366.777425,69.5161113 C363.016057,70.8363142 358.871703,66.6826571 356.026544,64.7731892 C356.615816,69.408689 358.834338,73.8752718 357.769447,78.6259781 C366.420904,75.2351742 374.977394,70.4229724 384.405726,69.3627622 C389.213302,68.8217592 394.069918,68.1811183 398.608158,70.1777696 C403.920156,72.5145908 407.174769,77.6692982 410.770332,81.9521733 C417.527871,90.00183 424.461337,97.8257444 430.947206,106.134616 C436.895959,113.75614 441.911377,122.587332 448.459519,129.723901 C455.098738,136.960886 460.109485,148.702595 459.382433,158.723994 C459.317045,159.628519 458.616458,161.683552 458.726216,162.658914 C458.811845,163.406199 459.490633,164.353538 459.479992,164.956036 C459.443149,166.983824 458.772922,168.151457 456.840862,169.276276 C453.491284,171.227778 448.499997,172.215595 444.714499,172.699774 C439.68507,173.343528 433.525362,173.412808 428.493597,172.725461 C423.303812,172.015541 418.742221,169.109693 413.969673,167.353575 C409.783282,165.8123 405.578989,164.850171 401.180086,163.867025 C398.753725,163.324465 396.067367,161.82289 394.568112,163.276203 C393.191073,164.611974 392.905388,171.465197 392.584676,173.287482 C389.104322,193.039149 384.968528,212.121373 381.305243,231.772624 C377.153881,254.046377 374.314952,276.311567 371.427759,298.774476 C368.803676,319.19325 367.945847,339.843217 367.358912,360.24331 C367.078677,369.974356 367.038198,379.601095 367.097359,389.340706 C367.130832,394.794325 369.856111,412.99927 361.774464,413.695958 C357.025268,414.106964 353.225757,407.294997 351.953027,403.58037 C350.041205,397.999086 349.045596,391.988896 348.740451,386.125824 C348.123935,374.256453 347.315148,362.378519 346.836414,350.504478 C346.317981,337.640284 346.977309,324.53867 348.034417,311.716512 C349.098527,298.808726 351.779436,286.089319 352.601458,273.162075 C350.134616,276.683653 349.34529,277.34531 345.236742,278.878801 C340.937481,280.484684 336.801688,282.384034 332.463504,283.880937 C330.987604,284.390025 328.684231,284.709179 327.474554,285.542868 C325.242019,287.081029 326.708581,285.335807 325.995539,288.329616 C325.234236,291.528151 325.091005,295.368104 324.888615,298.6546 C323.938152,314.079023 319.666912,329.393685 317.696709,344.736374 C317.221089,348.440883 317.899879,364.166554 311.526882,359.210343 C306.618888,355.393743 306.716192,343.405275 306.017941,337.789741 C305.088499,330.304439 305.606153,322.608185 305.753276,315.077737 C305.920638,306.501088 306.064647,297.50565 308.110357,289.13139 C304.450187,288.504762 299.359261,290.211841 295.674958,290.499077 C292.484956,290.747393 289.305852,290.905414 286.133757,291.079781 C278.568984,291.495457 270.776911,291.827064 263.084478,291.678386 C261.684085,291.651143 252.535211,290.369859 251.366011,291.402824 C250.986137,291.738325 250.870152,296.352807 250.799314,296.916385 C250.529978,299.036804 250.164895,301.15489 249.892445,303.263634 C249.023718,310.003985 248.239062,317.241748 248.488159,323.979764 L248.488159,323.979764 Z"/>
        <path d="M384.352052,388.036899 C390.125169,390.293961 396.25265,391.113014 402.074726,393.169209 C407.27978,395.007403 412.113379,397.478571 417.238392,399.347132 C417.538355,396.968613 417.697661,392.941088 416.819531,390.699595 C415.576939,387.525379 412.305325,387.447524 409.084221,386.317044 C401.244777,383.565592 392.99813,382.985559 385.215416,379.770858 C386.548153,382.337014 385.952889,385.734678 384.352052,388.036899 M484.011987,379.736603 C471.543323,380.102528 459.627182,383.005024 447.338807,384.800399 C441.358978,385.67317 435.37371,386.452517 429.388441,387.267675 C427.085099,387.580659 422.887174,387.211618 421.213289,389.206304 C419.825378,390.859202 421.346172,396.498357 420.729928,398.920477 C423.250084,399.106554 427.724657,396.751391 430.46007,396.361331 C434.719386,395.755606 438.922753,394.906967 443.226365,394.636806 C450.042358,394.207037 456.739458,393.841888 463.543796,393.082787 C470.463146,392.311228 477.15869,390.877108 484.133213,390.353132 C487.523728,390.097764 488.887547,390.733853 489.087263,387.153225 C489.165751,385.753363 489.357697,383.409879 488.965259,382.029479 C489.592382,380.332205 489.035974,379.508482 487.296035,379.556752 C486.190991,379.432184 485.096826,379.492133 484.011987,379.736603 M459.89606,368.308806 C463.267922,367.992707 466.653773,367.538804 470.034184,367.348833 C470.719592,367.309905 474.196362,367.519339 474.764425,366.881693 C475.567954,365.980113 474.672727,362.681328 474.525078,361.660627 C474.023846,358.189778 473.469768,356.171735 469.685262,356.163816 C466.491358,356.156164 463.184773,356.831959 460.003301,357.143385 C445.560789,358.559597 431.191326,359.157536 416.908123,361.846704 C417.777704,365.550344 418.764628,369.371548 417.724859,373.159275 C424.576603,373.512742 432.098987,372.193851 438.795306,370.840704 C445.639277,369.45797 452.901331,368.771273 459.89606,368.308806 M437.037494,333.436818 C431.877512,333.460175 426.423782,335.733589 421.332184,335.226741 C421.256028,336.174256 422.885619,335.387905 423.335564,336.274692 C424.296843,336.277027 424.631777,336.590791 424.338031,337.217535 C424.355903,337.644969 424.137537,337.895668 423.682152,337.968075 C423.457571,337.988316 423.232987,338.007003 423.009178,338.026468 C422.024585,338.058388 421.862948,338.722506 422.52582,340.021154 C422.241399,341.629671 422.66803,343.67263 422.730199,345.287376 C431.880621,344.041671 440.769932,342.746136 449.984854,342.19024 C454.335092,341.927862 458.682221,341.92864 463.02702,341.5705 C467.807776,341.176546 473.02604,342.021291 477.699555,341.125939 C480.197949,340.64712 479.936066,340.680599 479.754224,337.430085 C479.643096,335.455639 479.684282,333.111377 478.077227,331.671028 C475.393104,329.265258 469.281167,330.655778 466.071722,330.740643 C456.405302,330.996012 446.574914,331.894479 437.037494,333.436818 M442.319482,379.852608 C456.142641,378.596782 469.861665,375.846105 483.763311,375.846105 C482.780274,374.863556 480.639346,374.610522 479.416182,374.074089 C478.021276,373.463694 476.70486,372.162709 475.341817,371.628612 C472.606404,370.557304 469.82281,372.045923 467.013573,372.689019 C460.236433,374.241482 453.28289,374.294424 446.494871,375.8173 C439.477606,377.390782 432.368643,378.84203 425.221601,379.642396 C421.818654,380.023114 418.167034,380.795453 414.804497,379.896208 C414.531733,379.700788 414.257415,379.505369 413.98465,379.310726 C413.690905,378.058791 412.874944,377.724787 411.536768,378.307933 C409.837237,377.984049 407.672996,378.402141 405.961444,378.44496 C405.892647,379.128543 412.213625,381.272713 413.418918,381.803696 C416.322961,383.082882 418.292147,384.019496 421.393576,383.471385 C428.377428,382.237356 435.247041,380.764311 442.319482,379.852608 M393.692862,339.423214 C394.232952,341.530016 396.501323,340.571599 398.454191,340.803614 C401.075367,341.11426 403.683336,342.018956 406.222139,342.70098 C410.83271,343.940456 415.444831,345.162805 420.035972,346.473133 C419.854907,344.61781 420.26522,340.395643 419.285288,338.749754 C418.257178,337.024451 413.382394,336.268463 411.112467,335.742153 C405.390637,334.417811 399.2787,335.171464 393.465947,335.450191 C393.568527,336.772974 393.644684,338.096538 393.692862,339.423214 M448.655225,352.602786 C454.084088,352.142654 459.519165,351.78529 464.963569,351.593765 C471.188187,351.375765 466.663877,350.380758 466.532544,346.582911 C458.351174,347.888566 450.097534,348.146272 441.94181,349.261958 C435.184875,350.187674 427.135611,352.603565 420.243459,351.305695 C416.992825,350.693741 413.673808,350.457835 410.215688,350.112151 C406.953397,349.785932 403.87528,348.265392 400.652622,347.887788 C397.035196,347.46347 393.339279,349.497864 389.740502,350.035074 C388.215043,350.263194 387.860685,351.29791 387.140308,349.461272 C386.393509,347.556118 388.53288,345.998986 389.375264,344.859943 C390.359079,343.529375 389.950322,345.689894 390.496627,343.611902 C390.649716,343.029534 390.234741,341.566609 390.158585,340.939084 C389.965863,339.353144 389.467739,337.632511 389.390027,336.049688 C389.318535,334.596102 389.3061,332.37719 390.883626,331.528551 C391.84646,331.010805 392.528757,331.766014 393.368032,331.619643 C399.919811,330.479822 407.626371,330.386395 414.270625,331.486508 C421.473619,332.678493 427.67337,329.522186 434.773006,328.242222 C443.10125,326.741148 451.517307,326.516141 459.917821,325.881611 C467.100609,325.339727 480.224372,322.527547 482.96056,331.705286 C483.735335,334.305698 484.864472,341.464616 482.779496,343.677302 C480.044083,346.582911 473.709893,345.655639 470.172509,346.410848 C470.701717,347.916595 472.27691,348.940409 471.732161,350.733447 C476.689317,350.967797 477.565894,355.651653 478.342222,360.024859 C479.145748,364.549108 477.578326,366.347597 481.900588,368.703539 C487.924714,371.986752 494.306305,375.302667 494.188185,383.122587 C494.129127,387.054348 493.689283,392.98391 489.653773,395.023753 C485.706077,397.019217 479.277856,396.682099 474.926843,397.406167 C466.501459,398.80992 458.04655,400.45659 449.569879,401.298997 C440.543795,402.196686 431.367729,402.933208 422.326881,403.33417 C417.400807,403.553726 413.145375,404.298034 408.387933,402.639688 C403.710534,401.00937 399.134935,399.818944 394.309109,398.608272 C389.544671,397.41473 374.95995,395.806213 379.209942,387.655401 C379.889908,386.351302 382.214234,385.314252 382.589575,384.081002 C383.19494,382.091766 381.149597,380.539304 381.23508,378.741593 C381.391278,375.452929 385.100405,375.040291 387.661746,375.040291 C383.271875,372.293509 389.15068,369.041437 389.115709,366.709631 C389.054318,362.601135 383.946401,359.934546 383.657318,356.490169 C382.954816,348.108901 409.53261,356.83585 413.623296,358.649132 C410.474462,363.319752 395.867205,359.278213 391.516189,358.56972 C392.109899,360.129187 392.677184,361.531384 392.848925,363.128224 C392.988029,364.42921 392.491458,365.916272 392.946065,367.225818 C393.664111,369.296806 393.639241,368.900517 396.181155,369.464977 C398.061752,369.882288 399.921367,370.364998 401.795746,370.807225 C404.674922,371.486914 409.203894,373.310316 412.05665,373.21066 C414.558931,373.12346 414.064691,373.899691 414.523184,371.119429 C414.770304,369.62536 414.349113,368.037086 414.097331,366.57338 C413.572007,363.505829 412.803449,360.602555 415.481355,358.401549 C418.034926,356.302532 423.41716,355.303634 426.548895,354.563217 C433.500108,352.920442 441.522949,352.517921 448.655225,352.602786"/>
        <path d="M481.732948 300.245388C474.18354 298.979983 466.513308 298.668317 458.875036 299.051846 459.288948 300.942922 459.70286 302.83322 460.117553 304.722735 467.273314 302.879306 474.532753 301.799024 481.732948 300.245388L481.732948 300.245388zM420.346159 314.913153C417.318599 314.691317 419.424795 316.045768 420.172331 318.028236 421.091355 320.46375 420.894143 323.542903 421.105386 326.10652 429.963567 322.727419 440.270051 320.749639 449.687909 319.612336 454.154415 319.073366 458.685619 318.918706 463.17707 318.688278 464.504549 318.620322 469.299222 319.176475 470.270475 318.282879 470.991506 317.618151 470.485614 313.952381 469.792644 313.143147 466.023005 308.747818 451.451126 312.543253 446.179402 312.936935 437.535582 313.582915 429.049998 315.127959 420.346159 314.913153L420.346159 314.913153zM432.927206 303.133169C440.770486 303.886942 448.344059 303.815079 456.188116 304.990657 455.593363 300.003243 456.304263 298.730027 450.648247 298.465228 445.608032 298.230113 440.583408 298.03952 435.566577 298.041865 424.284947 298.048114 413.029817 297.832527 401.735715 297.832527L401.735715 302.901177C412.180947 301.83105 422.460928 303.763527 432.927206 303.133169L432.927206 303.133169zM395.210562 321.772899C400.160356 321.751809 404.838885 323.620234 409.789457 324.104524 412.752318 324.394319 411.821602 324.762224 413.87713 326.250246 417.078515 328.568592 418.000657 327.333652 417.599217 324.183417 416.238998 313.527456 402.752178 315.916885 394.980612 315.324799 395.491181 317.865765 394.317262 320.020859 392.587561 321.772899L395.210562 321.772899zM448.715099 308.091682C441.595191 308.207287 434.466711 308.611903 427.396691 308.464272 424.231941 308.397877 420.131797 307.770644 417.030188 308.310393 414.757958 308.705636 412.85755 309.863248 410.365504 310.293644 414.026012 312.265956 415.881992 310.933375 419.730358 310.484234 423.575605 310.036656 427.477759 310.045247 431.338597 309.811696 437.679008 309.427386 444.437231 307.908119 450.684104 308.321329 450.79791 307.441012 450.142355 307.364464 448.715099 308.091682L448.715099 308.091682zM392.243024 331.170485C388.976163 331.163455 393.47073 327.446914 394.060808 327.078228 390.44395 327.078228 389.568577 324.908291 390.61622 321.422177 391.603839 318.138374 392.334226 319.143668 389.849976 316.408986 387.979968 314.34997 387.697011 312.833045 389.901421 310.531101 392.14481 308.18932 396.687706 308.851705 398.675419 306.918447 402.059205 303.628395 397.692475 297.074844 402.381138 294.55419 405.550565 292.851359 410.659373 293.062261 414.158528 292.702167 417.540756 292.354571 421.041467 292.287395 424.446302 292.241309 431.867874 292.139765 439.577079 293.384861 446.965912 294.069897 449.659848 294.319075 452.688185 295.407946 455.342365 295.410291 458.048772 295.413415 460.883795 294.809614 463.678285 294.879132 466.92722 294.961148 470.056891 294.721348 473.407161 295.254848 475.974038 295.664154 481.967575 295.87896 483.929565 297.788003 490.467189 304.149396 474.963812 307.070765 472.29638 307.785485 475.011361 310.760748 474.898336 314.693659 474.4891 318.439103 475.781502 318.439103 478.009299 317.876701 478.678107 319.326448 479.509047 321.126916 476.433941 321.594804 475.706672 321.804925 471.523901 323.013308 466.628674 322.682116 462.318066 323.121101 453.699969 323.998292 445.186324 324.504455 436.65787 326.137765 432.501602 326.933721 428.370279 327.918706 424.21713 328.693572 423.499995 328.827923 422.778961 328.934936 422.054811 329.016171 420.94325 328.920876 420.583905 329.61841 420.975991 331.112681 419.823118 331.675867 415.524982 330.272204 414.195943 330.057398 406.587291 328.822455 399.780743 329.335648 392.243024 331.170485L392.243024 331.170485zM545.882436 405.081416C540.974943 408.944727 536.413213 412.590135 531.098574 415.947075 534.855341 415.829983 547.3494 409.836499 545.882436 405.081416M543.965591 398.78473C541.287295 396.482408 538.626868 396.718146 535.311436 396.020238 532.258626 395.377386 529.292065 394.270813 526.245472 393.534131 523.854661 392.956418 521.48794 392.174761 519.105677 391.628842 515.741293 390.857265 515.409516 391.706387 512.315528 393.469769 501.343599 399.725357 489.065543 404.028349 477.508538 409.105246 480.90167 412.093845 488.534857 412.22257 492.775689 413.175604 495.872008 413.870411 498.818369 414.821117 501.784153 415.921485 504.545589 416.947412 508.994656 419.306341 511.906829 419.384662 514.365238 419.451352 516.363664 417.031161 518.480197 415.727622 521.264164 414.012318 524.035701 412.327258 526.841426 410.654602 532.779213 407.115431 538.330832 402.778319 543.965591 398.78473M494.380179 424.122685C493.113681 422.903673 489.300973 422.95718 487.712797 422.58496 484.584619 421.853709 481.502285 421.093762 478.332151 420.544742 473.187675 419.654521 465.061096 419.255938 464.50244 412.579279 464.037019 407.030906 470.738591 405.714186 474.658523 403.834487 480.552799 401.006406 486.56673 398.397002 492.610966 395.903143 498.277582 393.565926 504.027335 391.589294 509.797291 389.569237 510.922377 389.175305 511.836122 389.229587 512.754529 388.328511 513.479464 387.617418 513.255691 386.237111 514.049777 385.494226 515.868719 383.792879 518.228451 384.687754 520.414133 385.124334 525.37757 386.114588 530.531369 387.415026 535.263262 389.252075 540.180856 391.161244 544.579416 391.559827 545.760446 397.136889 548.2748 395.956649 550.166002 395.785274 549.865307 399.253104 549.777505 400.272052 549.037807 401.380174 548.859876 402.430914 548.598806 403.980271 549.056454 405.613377 548.797715 407.166612 547.856777 412.814243 540.244568 416.997815 535.527438 419.215615 529.710865 421.949863 522.205882 425.989979 515.711767 426.523491 508.79186 427.092674 501.250359 424.373933 494.380179 424.122685"/>
        <path d="M406.296584 330.425678C404.233631 330.438682 402.169069 330.451684 400.106922 330.464689 402.165852 330.077689 404.229608 330.073354 406.296584 330.425678M285.598153 112.048574C284.979409 113.08008 284.360665 114.111587 283.741252 115.144568 283.952173 113.814448 284.424073 112.674556 285.598153 112.048574M406.296584 360.021333C407.536974 360.032478 408.776628 360.042387 410.010383 360.05415 408.767778 360.044244 407.532551 360.033098 406.296584 360.021333M434.769034 292.662398C433.323959 292.584379 431.880525 292.50574 430.43627 292.427721 431.880525 292.50574 433.323959 292.584379 434.769034 292.662398M410.010383 330.456316C408.771931 330.444551 407.53348 330.433406 406.296584 330.42164 407.538919 330.082938 408.777371 330.094703 410.010383 330.456316M459.270507 154.7733C459.235846 153.534349 459.201182 152.295397 459.165902 151.058106 459.201801 152.297887 459.235846 153.535178 459.270507 154.7733M248.807722 341.771373C248.782345 340.738874 248.756967 339.706372 248.731589 338.67538 248.757586 339.708634 248.782345 340.739627 248.807722 341.771373M282.503319 291.305113C283.331488 291.305733 284.158084 291.306352 284.979185 291.308209 284.150233 291.308209 283.326776 291.306352 282.503319 291.305113M393.298292 68.9021739C392.26621 68.9770969 391.234835 69.0514008 390.203461 69.1263237 391.235543 69.0514008 392.266917 68.9770969 393.298292 68.9021739M471.288048 295.033931C470.050115 295.025881 468.811338 295.017831 467.574249 295.009781 468.811338 295.017831 470.050115 295.025881 471.288048 295.033931M367.038337 371.492921C367.007388 370.666083 366.97582 369.838496 366.94611 369.016126 366.97644 369.843713 367.007388 370.669062 367.038337 371.492921M368.263581 339.913776C368.241296 339.087701 368.219014 338.26091 368.196732 337.436981 368.219633 338.263056 368.241915 339.088416 368.263581 339.913776M347.140736 354.155352C347.170446 354.982198 347.200776 355.809041 347.229866 356.632147 347.200156 355.804555 347.170446 354.980702 347.140736 354.155352M287.455051 290.700156C288.07638 290.691487 288.696999 290.683439 289.311949 290.67477 288.689205 290.683439 288.072128 290.691487 287.455051 290.700156M466.955284 322.926055C467.57584 322.899429 468.196398 322.872183 468.812182 322.84556 468.189579 322.872803 467.571749 322.899429 466.955284 322.926055M348.370312 373.969718C348.405593 374.796184 348.440873 375.623518 348.476154 376.446513 348.440873 375.617443 348.405593 374.793579 348.370312 373.969718M414.715146 369.635324C414.673673 370.462578 414.631584 371.289003 414.590113 372.112122 414.631584 371.284868 414.673673 370.460097 414.715146 369.635324M343.375252.683635416C342.500964.57217961 341.6259.461652603 340.750836.350196797 341.618162.550817248 342.568275-.193150256 343.375252.683635416M305.750148 318.241815C305.726627 319.068533 305.703107 319.895253 305.678967 320.71861 305.701868 319.89021 305.726008 319.066014 305.750148 318.241815M252.547208 393.784082C252.505118 392.957947 252.46179 392.131808 252.419701 391.307287 252.46241 392.133425 252.505118 392.958755 252.547208 393.784082M452.719058 324.143399C453.341183 324.130397 453.961585 324.116773 454.575957 324.10501 453.952969 324.118632 453.336015 324.131017 452.719058 324.143399M242.573493 173.968466C242.578445 174.795471 242.582778 175.622476 242.586492 176.445262 242.58154 175.617413 242.577826 174.79294 242.573493 173.968466M229.586652 359.728142C229.584176 360.554905 229.581081 361.382542 229.576748 362.204937 229.579224 361.377303 229.582938 360.552286 229.586652 359.728142M383.854573 354.77455C383.832291 355.601021 383.810626 356.42836 383.787105 357.251347 383.447913 356.402236 383.486289 355.579248 383.854573 354.77455M268.267094 291.92586C268.888287 291.92586 269.50948 291.92586 270.123995 291.92586 269.50113 291.92586 268.884113 291.92586 268.267094 291.92586M367.621092 351.059357C367.614284 350.232891 367.608094 349.406423 367.601285 348.582562 367.608094 349.410768 367.614284 350.234629 367.621092 351.059357M494.189801 424.408732C494.811266 424.425452 495.432733 424.442789 496.046699 424.460128 495.422735 424.443408 494.806269 424.426071 494.189801 424.408732M471.907013 345.807002C472.320799 345.799572 472.735955 345.792761 473.144946 345.785331 472.728421 345.792761 472.31806 345.799572 471.907013 345.807002M456.432855 347.655003C456.848051 347.653763 457.261854 347.653144 457.670788 347.652524 457.255594 347.653763 456.843877 347.654383 456.432855 347.655003M215.382613 351.678557C215.357854 351.05912 215.332476 350.438965 215.308337 349.82096 215.333714 350.441116 215.358473 351.060553 215.382613 351.678557M468.812182 351.208652C468.274604 351.752929 467.582928 351.431564 466.955284 351.466239 467.574483 351.38017 468.193685 351.294721 468.812182 351.208652M395.15519 331.397678C394.337998 331.784058 393.512132 331.837308 392.679324 331.424302 393.505192 331.415635 394.33019 331.406965 395.15519 331.397678M449.005259 352.617881C448.179683 352.611071 447.354107 352.60426 446.529394 352.59683 447.35497 352.60426 448.180546 352.611071 449.005259 352.617881M414.343147 331.047778C413.517857 330.972854 412.691717 330.897931 411.867281 330.823007 412.691717 330.897931 413.517857 330.972854 414.343147 331.047778M225.273385 328.148997C225.257911 328.769812 225.241199 329.389822 225.224486 330.006594 225.239961 329.38497 225.256673 328.766581 225.273385 328.148997M367.563527 361.585739C367.595714 360.965178 367.627282 360.34462 367.65885 359.728142 367.627282 360.349519 367.595714 360.967629 367.563527 361.585739M452.719058 325.877775C451.894048 325.947127 451.068203 326.016476 450.243192 326.085826 451.069041 326.016476 451.894048 325.947127 452.719058 325.877775M248.795343 323.814606C248.778631 323.194294 248.7613 322.573983 248.743969 321.957009 248.760681 322.578985 248.778631 323.196795 248.795343 323.814606M352.21007 276.136288C352.161171 276.756733 352.112273 277.37643 352.063994 277.993885 352.112892 277.37344 352.161791 276.755239 352.21007 276.136288M465.098385 294.873515C464.271719 295.302002 463.446706 295.24813 462.622519 294.86918 463.447532 294.870419 464.27337 294.872278 465.098385 294.873515M367.047001 380.780905C367.009862 380.160684 366.973963 379.541229 366.937444 378.923308 366.973963 379.544297 367.009862 380.162218 367.047001 380.780905M367.031218 385.734497C367.005221 385.114815 366.978604 384.495134 366.953229 383.8769 366.979843 384.497307 367.00584 385.115541 367.031218 385.734497M249.99459 304.000239C250.003875 303.380215 250.011921 302.759362 250.020587 302.142643 250.011302 302.764322 250.003256 303.381867 249.99459 304.000239M426.103506 402.779495C426.517761 402.76773 426.932018 402.755967 427.341439 402.745439 426.925113 402.757824 426.51431 402.76835 426.103506 402.779495M226.537005 408.025658C226.503581 407.405702 226.470156 406.785746 226.436732 406.168061 226.470775 406.788018 226.503581 407.407216 226.537005 408.025658M360.493077 413.276156C360.90785 413.284826 361.322626 413.292256 361.731008 413.301543 361.314813 413.293493 360.904301 413.284826 360.493077 413.276156M450.243192 294.496464C449.418185 294.433926 448.592337 294.371387 447.767327 294.308848 448.592337 294.371387 449.418185 294.433926 450.243192 294.496464M454.575957 295.150339L452.719058 294.893371 454.575957 295.150339zM360.750565 360.34734C360.785849 358.488935 360.819891 356.631338 360.854552 354.77455 360.819271 356.632958 360.785229 358.489744 360.750565 360.34734M312.491 292.235461C312.512046 293.681235 312.53309 295.12701 312.555372 296.569852 312.534328 295.122612 312.512663 293.679036 312.491 292.235461M205.751497 382.928906C204.718363 382.941291 203.683704 382.953676 202.656665 382.967297 203.692847 382.954913 204.722172 382.941911 205.751497 382.928906M290.549882 259.751355C289.515431 259.735257 288.481832 259.718538 287.455051 259.703677 288.492059 259.720397 289.521397 259.735877 290.549882 259.751355M263.93433 283.877822C264.966663 283.877205 265.998275 283.875965 267.029163 283.874726 265.997552 283.875346 264.965941 283.876585 263.93433 283.877822M277.55159 259.087884C276.723403 259.101506 275.896009 259.115747 275.075724 259.128751 275.906282 259.11513 276.728936 259.101506 277.55159 259.087884M210.703227 382.954603C209.875819 382.950271 209.048411 382.945936 208.227362 382.941601 209.057949 382.946555 209.880588 382.950271 210.703227 382.954603M322.117163 66.644884C323.148299 66.5730571 324.180864 66.5018491 325.211997 66.4300222 324.180147 66.5018491 323.148299 66.5730571 322.117163 66.644884M335.986343 139.293326C336.024718 138.261045 336.063094 137.228764 336.101471 136.197332 336.062475 137.230463 336.024718 138.261895 335.986343 139.293326M310.975772 148.890291C310.354687 148.890291 309.733603 148.89091 309.118871 148.891529 309.742073 148.891529 310.358921 148.89091 310.975772 148.890291M258.363633 257.240504C257.742561 257.247315 257.121486 257.254128 256.506735 257.260939 257.129916 257.254745 257.746774 257.247934 258.363633 257.240504M244.127409 282.537256C244.95295 282.60413 245.778492 282.671623 246.603274 282.738497 245.777732 282.671623 244.95295 282.60413 244.127409 282.537256M242.560495 313.907421C242.573493 313.080968 242.587111 312.255369 242.59949 311.430626 242.586492 312.257936 242.573493 313.082678 242.560495 313.907421M313.451635 280.901642C314.276426 280.820527 315.10271 280.740032 315.927501 280.658918 315.101965 280.740032 314.276426 280.820527 313.451635 280.901642M370.013396 266.229106C370.062914 265.402948 370.111812 264.575953 370.160711 263.752309 370.111812 264.579306 370.062295 265.404625 370.013396 266.229106M380.918965 152.08319C381.744493 152.018793 382.5693 151.954396 383.394831 151.890619 382.5693 151.954396 381.744493 152.018793 380.918965 152.08319M296.739547 260.355695C296.118847 260.349501 295.497284 260.34331 294.882646 260.337738 295.505941 260.34331 296.123177 260.349501 296.739547 260.355695M242.625487 360.34734C242.594538 359.727029 242.564209 359.107385 242.534499 358.489744 242.564209 359.110057 242.594538 359.729034 242.625487 360.34734M312.023286 328.768195C313.37605 332.123947 312.616421 329.74785 312.651107 330.522462 311.498657 330.677248 311.288806 330.09227 312.023286 328.768195M255.268802 257.284466C254.648419 257.262175 254.026338 257.239884 253.411903 257.216976 254.036535 257.239267 254.65182 257.261558 255.268802 257.284466M381.788921 194.40203C381.827917 193.576164 381.86753 192.750297 381.905906 191.925235 381.866913 192.751905 381.827298 193.576968 381.788921 194.40203M242.583088 354.155352C242.581231 353.329176 242.578755 352.503867 242.576898 351.678557 242.578755 352.506468 242.580612 353.330911 242.583088 354.155352M242.515311 335.579384C242.558019 334.959688 242.601966 334.339991 242.644675 333.721788 242.601347 334.34223 242.558019 334.961181 242.515311 335.579384M371.23833 254.464325C371.295895 253.844628 371.35408 253.224929 371.411642 252.606728 371.35408 253.227178 371.295895 253.846127 371.23833 254.464325M234.450489 337.436981C234.505577 338.057406 234.561284 338.677833 234.616372 339.294578 234.560665 338.674889 234.505577 338.055935 234.450489 337.436981M233.203891 332.483389C233.265169 333.103086 233.325827 333.723526 233.387105 334.340986 233.325827 333.719803 233.265169 333.101595 233.203891 332.483389M357.019438 247.653138C357.06586 247.0337 357.111662 246.414263 357.158086 245.795541 357.111046 246.415695 357.065241 247.034416 357.019438 247.653138M41.106456 331.652115C41.9311656 331.5871 42.7567435 331.521464 43.5823212 331.457069 42.7550072 331.522083 41.9302976 331.5871 41.106456 331.652115M351.553654 346.724965C351.529515 347.3455 351.505375 347.966837 351.482474 348.582562 351.506614 347.960424 351.530134 347.343095 351.553654 346.724965M361.352512 348.582562C361.398314 347.963117 361.444119 347.342934 361.490541 346.724965 361.444119 347.345148 361.398314 347.963855 361.352512 348.582562M357.609932 245.176342C357.674923 244.556401 357.741152 243.937202 357.805526 243.318745 357.740532 243.939429 357.674923 244.557886 357.609932 245.176342M46.0581866 331.057064C46.8837665 330.97595 47.7093465 330.894835 48.5340517 330.81372 47.7093465 330.894835 46.8828918 330.97595 46.0581866 331.057064M308.499906 259.720707C308.085591 259.725039 307.670561 259.729993 307.261973 259.734328 307.678432 259.729993 308.08917 259.725039 308.499906 259.720707M242.583088 330.006594C242.581231 329.386116 242.578755 328.766405 242.576898 328.148997 242.578755 328.770243 242.581231 329.38765 242.583088 330.006594M362.707747 328.768195C362.488014 328.127991 362.380315 327.497007 362.804306 326.910599 362.772119 327.530824 362.739934 328.149511 362.707747 328.768195M352.163336 317.003417C352.146005 317.623146 352.127436 318.243674 352.110725 318.861013 352.128675 318.23969 352.146005 317.621554 352.163336 317.003417M352.698125 378.30411C352.736499 378.923547 352.775495 379.544423 352.813872 380.161707 352.775495 379.541551 352.736499 378.922112 352.698125 378.30411M398.250021 153.093103C398.869681 153.181649 399.488646 153.270194 400.106922 153.357501 399.487262 153.268956 398.868989 153.181029 398.250021 153.093103M395.774158 153.150769C396.604592 153.200924 397.517386 152.801541 398.250021 153.386684L395.774158 153.150769zM289.930917 283.882466C290.756204 283.878751 291.582369 283.874416 292.40678 283.870082 291.581493 283.874416 290.756204 283.878751 289.930917 283.882466M308.499906 152.498672L310.975772 152.713534C310.149347 152.641707 309.325477 152.570499 308.499906 152.498672M267.648129 283.714504C268.474264 283.71822 269.298705 283.721935 270.123995 283.72565 269.295322 284.124415 268.470035 284.163423 267.648129 283.714504M245.12673 387.592094C245.079688 386.970999 245.032647 386.351529 244.984986 385.734497 245.032647 386.355594 245.079688 386.973437 245.12673 387.592094M335.411323 153.534902C335.420609 152.91463 335.429273 152.295163 335.438559 151.677305 335.429273 152.298381 335.420609 152.917044 335.411323 153.534902M283.122287 283.976276C283.94814 283.910022 284.773145 283.843148 285.598153 283.776275 284.772299 283.843148 283.94814 283.910022 283.122287 283.976276M353.354228 393.164884C353.367846 393.784848 353.382081 394.404814 353.395699 395.022481 353.382081 394.400986 353.367846 393.783319 353.354228 393.164884M355.541346 137.863286C356.366635 137.784648 357.191922 137.70601 358.017211 137.627372 357.191922 137.70601 356.366635 137.784648 355.541346 137.863286M366.288459 295.950654C366.345402 295.330967 366.402348 294.711281 366.458055 294.093057 366.401729 294.713475 366.344783 295.331698 366.288459 295.950654M394.774837 130.624542C394.822497 130.00437 394.869537 129.384928 394.916578 128.766945 394.869537 129.387116 394.821877 130.005829 394.774837 130.624542M336.025956 77.3734343C336.037716 77.9931285 336.04886 78.6135659 336.061856 79.231031 336.050096 78.6098507 336.038335 77.9916425 336.025956 77.3734343M314.070603 65.8151576C314.89589 65.8838887 315.72205 65.9532389 316.546469 66.0213509 315.721179 65.9526198 314.89589 65.8838887 314.070603 65.8151576M190.277339 417.744604C191.102917 417.66349 191.927626 417.582995 192.753204 417.501878 191.927626 417.582995 191.102917 417.664109 190.277339 417.744604M315.308536 59.7268841C314.894198 59.726265 314.479136 59.7256459 314.070603 59.7256459 314.48639 59.7268841 314.897826 59.7268841 315.308536 59.7268841M163.042821 425.80906C163.86898 425.383052 164.693398 425.504415 165.518686 425.812156 164.693398 425.810917 163.867239 425.8103 163.042821 425.80906M484.28634 389.870127C485.730844 389.795823 487.17535 389.722139 488.619104 389.648455 487.17535 389.722139 485.730844 389.796443 484.28634 389.870127M484.28634 379.204426C483.458438 379.223002 482.631321 379.242198 481.810474 379.261391 482.639944 379.242815 483.463142 379.223002 484.28634 379.204426M471.907013 366.923759C472.938624 366.845121 473.970235 366.766482 475.001846 366.687843 474.039608 367.2928 472.938624 366.845121 471.907013 366.923759M460.146654 368.199403C461.178532 368.12448 462.209607 368.050176 463.241485 367.975252 462.21041 368.050176 461.178532 368.12448 460.146654 368.199403M442.815597 379.329503C443.640884 379.265106 444.466174 379.200711 445.291463 379.136313 444.466174 379.200711 443.640884 379.265106 442.815597 379.329503M447.148361 379.331052C447.973648 379.266035 448.798938 379.199781 449.624227 379.134767 448.798938 379.199781 447.973648 379.265416 447.148361 379.331052M450.243192 378.723307C451.06824 378.650243 451.893288 378.577795 452.719058 378.504111 451.894011 378.577178 451.068963 378.650243 450.243192 378.723307M454.575957 357.555374C453.955038 357.559708 453.334119 357.564043 452.719058 357.566519 453.342486 357.561565 453.959222 357.558469 454.575957 357.555374M470.050115 391.667727C470.875404 391.598377 471.700691 391.527788 472.525981 391.458439 471.755857 391.999618 470.885566 391.688161 470.050115 391.667727M446.529394 342.19924C447.354192 342.120601 448.179726 342.041345 449.005259 341.962706 448.179726 342.041345 447.354192 342.120601 446.529394 342.19924M443.434562 332.174721C442.81304 332.174101 442.192368 332.173481 441.577664 332.172862 442.201747 332.173481 442.818155 332.174101 443.434562 332.174721M437.2449 333.409402C436.830616 333.41188 436.416328 333.413736 436.006967 333.414976 436.423364 333.413117 436.834132 333.41126 437.2449 333.409402M422.389707 335.134407C422.181624 335.643389 421.088211 335.578372 421.154682 335.055769 421.566036 335.081775 421.977391 335.108401 422.389707 335.134407M393.570017 337.436981C393.595395 338.056179 393.620773 338.676818 393.645532 339.294578 393.620154 338.673942 393.595395 338.054741 393.570017 337.436981M478.096678 340.719106C478.715419 340.708581 479.334835 340.698672 479.953576 340.688146 479.34224 341.125302 478.722152 341.064 478.096678 340.719106M454.575957 331.545923C454.161639 331.552115 453.747324 331.558306 453.338024 331.56326 453.754491 331.557689 454.165224 331.552115 454.575957 331.545923M438.482833 370.679603C439.30841 370.602204 440.133986 370.525424 440.958697 370.448644 440.133123 370.525424 439.30841 370.602824 438.482833 370.679603M428.579372 371.910572L431.055235 371.694471 428.579372 371.910572zM476.858745 390.494899C477.68375 390.41688 478.509605 390.339481 479.334611 390.262079 478.509605 390.339481 477.68375 390.41688 476.858745 390.494899M447.148361 394.222802C447.975103 393.920635 448.801848 393.817227 449.624227 394.230233 448.798356 394.227757 447.973359 394.225281 447.148361 394.222802M445.836175 308.871964L444.672495 308.469484C446.11675 308.451527 447.561002 308.433571 449.005262 308.416234 449.008567 308.416851 446.002534 308.884966 445.836175 308.871964M434.769034 298.118778C433.734896 298.118159 432.70076 298.117541 431.674203 298.116922 432.709857 298.118159 433.739447 298.118778 434.769034 298.118778M395.774158 321.787964C396.803843 321.375577 397.835694 321.456072 398.868989 321.776818 397.837136 321.780533 396.806008 321.784249 395.774158 321.787964M458.289755 311.729081C457.668661 311.736511 457.047568 311.743942 456.432855 311.751372 457.056076 311.743322 457.672915 311.736511 458.289755 311.729081M445.291463 303.589402C446.3236 303.656895 447.35574 303.724386 448.386294 303.791879 447.354947 303.723768 446.322808 303.656895 445.291463 303.589402M432.293168 309.992227C433.325046 309.919162 434.356922 309.846715 435.388002 309.77303 434.356922 309.846715 433.325046 309.919162 432.293168 309.992227M440.339731 308.749186C441.164777 308.679217 441.989819 308.609248 442.815597 308.539276 441.989819 308.609248 441.164777 308.679217 440.339731 308.749186M433.531101 302.969891C434.356874 303.037385 435.181919 303.105497 436.006967 303.17299 435.181197 303.104878 434.356149 303.037385 433.531101 302.969891M421.770742 314.849224C421.356181 314.840554 420.942339 314.831887 420.532809 314.823218 420.948805 314.831887 421.359775 314.840554 421.770742 314.849224M434.769034 308.682932C434.354259 308.656926 433.940196 308.631539 433.531101 308.605533 433.947297 308.63092 434.357811 308.656926 434.769034 308.682932M426.722471 308.661261C426.307708 308.649495 425.892946 308.63773 425.484541 308.627204 425.900716 308.63897 426.311243 308.650115 426.722471 308.661261M449.005259 308.085388C449.005259 308.245761 450.869475 307.432134 450.862138 308.188794L449.005259 308.085388zM442.19663 298.116922C441.781912 298.117541 441.367886 298.118159 440.958697 298.118778 441.375488 298.118159 441.785368 298.117541 442.19663 298.116922M222.463587 268.753254C223.133852 266.016839 222.951255 263.875698 225.338377 265.624373 226.648473 266.584248 228.808462 271.452512 228.644422 273.10133 228.442526 275.135644 227.515438 275.946118 225.601881 275.298976 223.401809 274.553525 222.528907 270.799953 222.463587 268.753254M343.056831 252.140445C348.600026 252.140445 346.181514 258.042031 341.560645 258.174143 339.437524 258.235057 336.382844 257.815777 337.071321 254.972573 337.439021 253.455248 342.825288 251.40947 343.056831 252.140445M283.601537 263.752309C287.602856 265.68904 281.973074 274.194153 278.336929 272.088495 273.680949 269.393569 281.955909 264.965739 283.601537 263.752309M273.864959 271.801896C275.174887 273.231097 281.077223 278.076541 277.823854 280.024587 273.822829 282.42065 270.77782 274.511491 273.864959 271.801896M206.790298 268.086703C205.488491 265.568303 207.279647 258.978572 211.254529 260.182647 215.254386 261.395385 208.991195 267.418122 206.790298 268.086703M295.093262 269.537872C297.688255 268.492737 297.194164 271.585468 297.586506 272.582497 298.030944 273.716085 300.315808 276.475957 299.742761 277.682478 298.892143 279.472476 296.858802 278.331128 295.755034 277.16961 293.819371 275.1321 293.956934 271.864017 295.093262 269.537872M255.541322 272.404206C253.378176 272.404206 248.214698 266.16523 251.248487 265.1185 255.014203 263.819479 258.163045 272.862774 255.541322 272.404206M330.292693 262.513912C332.273551 263.002681 334.895551 268.613782 331.910106 269.264474 328.604483 269.985633 328.014472 264.065679 330.292693 262.513912M318.281599 273.040292C316.727483 270.047068 316.344706 263.639641 320.138377 268.78255 320.960313 269.896606 321.808214 269.44602 321.386119 271.283573 321.017433 272.888231 319.544918 273.040292 318.281599 273.040292M236.442887 257.56032C238.026465 259.944714 237.55882 267.421985 234.249851 262.999643 232.842695 261.119748 233.811751 257.649724 236.442887 257.56032M316.044033 32.8517177C319.116348 32.058208 319.853069 39.3046421 318.061282 40.1034321 315.552623 41.2212853 315.866999 34.0638569 316.044033 32.8517177M510.379508 400.997212C507.527938 400.830361 503.533354 400.052535 507.85281 398.027768 510.593177 396.745361 514.667987 396.655891 517.561657 397.182235 519.556168 397.544951 522.549127 399.19894 519.505332 401.343002 517.723697 402.597196 512.545592 401.058471 510.379508 400.997212M507.183507 406.168061C506.358897 406.074957 505.535138 405.981856 504.71223 405.889752 505.373448 404.689419 507.294136 404.437139 507.183507 406.168061"/>
        <path d="M510.901892,400.877936 C511.729308,400.895892 512.556725,400.914468 513.377758,400.931807 C512.547948,400.913848 511.724521,400.895892 510.901892,400.877936"/>
      </g>
    </g>
  </g>
</svg>
